<svg viewBox="-42 0 512 512" xmlns="http://www.w3.org/2000/svg"><path d="m86.332031 147.386719h256.328125v364.613281h-256.328125zm0 0" fill="#fed89b"/><g fill="#eab875"><path d="m321.773438 147.386719h20.886718v364.613281h-20.886718zm0 0"/><path d="m141.9375 329.910156c8.820312 0 15.972656 7.148438 15.972656 15.96875v166.121094h-31.941406v-166.121094c0-8.820312 7.152344-15.96875 15.96875-15.96875zm0 0"/><path d="m214.496094 329.910156c8.820312 0 15.96875 7.148438 15.96875 15.96875v166.121094h-31.9375v-166.121094c0-8.820312 7.148437-15.96875 15.96875-15.96875zm0 0"/><path d="m287.054688 329.910156c8.816406 0 15.96875 7.148438 15.96875 15.96875v166.121094h-31.9375v-166.121094c-.003907-8.820312 7.148437-15.96875 15.96875-15.96875zm0 0"/><path d="m366.835938 85.230469h-304.679688c-34.328125 0-62.15625 27.832031-62.15625 62.160156s27.828125 62.15625 62.15625 62.15625 62.15625-27.828125 62.15625-62.15625h180.367188c0 34.328125 27.828124 62.15625 62.15625 62.15625 34.328124 0 62.15625-27.828125 62.15625-62.15625 0-34.332031-27.828126-62.160156-62.15625-62.160156zm0 0"/></g><path d="m366.835938 85.230469h-23.058594c34.328125 0 62.15625 27.832031 62.15625 62.160156 0 30.382813-21.8125 55.664063-50.628906 61.070313 3.738281.703124 7.589843 1.085937 11.53125 1.085937 34.328124 0 62.15625-27.828125 62.15625-62.15625 0-34.332031-27.828126-62.160156-62.15625-62.160156zm0 0" fill="#c68d4e"/><path d="m393.582031 147.386719c0 14.773437-11.972656 26.75-26.746093 26.75-14.773438 0-26.746094-11.976563-26.746094-26.75 0-14.769531 11.972656-26.746094 26.746094-26.746094 14.773437 0 26.746093 11.976563 26.746093 26.746094zm0 0" fill="#c68d4e"/><path d="m88.902344 147.386719c0 14.773437-11.972656 26.75-26.746094 26.75s-26.746094-11.976563-26.746094-26.75c0-14.769531 11.972656-26.746094 26.746094-26.746094s26.746094 11.976563 26.746094 26.746094zm0 0" fill="#c68d4e"/><path d="m21.804688 0v24.542969c0 33.515625 27.171874 60.6875 60.6875 60.6875h264.007812c33.515625 0 60.6875-27.171875 60.6875-60.6875v-24.542969zm0 0" fill="#fed89b"/><path d="m382.464844 0v24.542969c0 33.515625-27.171875 60.6875-60.691406 60.6875h24.726562c33.515625 0 60.6875-27.171875 60.6875-60.6875v-24.542969zm0 0" fill="#eab875"/><path d="m60.4375 248.5625h308.117188c9.054687 0 16.398437 7.339844 16.398437 16.398438 0 9.054687-7.34375 16.398437-16.398437 16.398437h-308.117188c-9.054688 0-16.398438-7.34375-16.398438-16.398437 0-9.058594 7.34375-16.398438 16.398438-16.398438zm0 0" fill="#eab875"/><path d="m368.554688 248.5625h-25.675782c9.054688 0 16.398438 7.339844 16.398438 16.398438 0 9.054687-7.34375 16.398437-16.398438 16.398437h25.675782c9.054687 0 16.394531-7.34375 16.394531-16.398437 0-9.058594-7.339844-16.398438-16.394531-16.398438zm0 0" fill="#c68d4e"/><path d="m282.640625 206.632812h-136.289063c-4.140624 0-7.5-3.359374-7.5-7.5 0-4.144531 3.359376-7.5 7.5-7.5h136.285157c4.144531 0 7.5 3.355469 7.5 7.5 0 4.140626-3.355469 7.5-7.496094 7.5zm0 0" fill="#c68d4e"/></svg>
