<svg id="Capa_1" viewBox="0 0 512 512" xmlns="http://www.w3.org/2000/svg"><g><path d="m426.235 138.802v62.966c0 19.731-15.995 35.726-35.726 35.726h-15.738c-19.731 0-35.726-15.995-35.726-35.726v-36.068c0-5.454-6.48-8.337-10.522-4.666l-19.498 17.639c-6.895 6.242-17.565 5.707-23.807-1.189l-4.532-5.008c-6.256-6.91-5.722-17.565 1.174-23.822l60.648-54.896c6.39-5.781 10.046-13.999 10.046-22.619v-67.018c0-2.276 1.845-4.121 4.121-4.121h52.124c2.276 0 4.121 1.845 4.121 4.121v76.188c0 3.253.435 6.492 1.293 9.63l10.715 39.188c.861 3.151 1.307 6.405 1.307 9.675z" fill="#ffcdbe"/><path d="m424.927 129.127-10.715-39.188c-.858-3.138-1.293-6.377-1.293-9.63v-76.188c0-2.276-1.845-4.121-4.121-4.121h-21.688v80.279c0 3.273.437 6.531 1.301 9.689l10.707 39.16c.862 3.151 1.308 6.405 1.308 9.675v62.966c0 18.023-13.35 32.914-30.697 35.365 1.648.233 3.33.361 5.043.361h15.723c19.739 0 35.741-16.002 35.741-35.741v-62.951c-.001-3.271-.447-6.525-1.309-9.676z" fill="#ebae9d"/><path d="m456.825 216.864h-289.415c-10.401 0-18.833 8.432-18.833 18.833v44.528c0 53.807 43.619 97.425 97.426 97.425h132.23c53.807 0 97.426-43.618 97.426-97.425v-44.528c-.001-10.401-8.433-18.833-18.834-18.833z" fill="#c77e67"/><path d="m456.825 216.864h-35.797c10.401 0 18.833 8.432 18.833 18.833v44.528c0 53.807-43.619 97.425-97.426 97.425h35.797c53.807 0 97.426-43.618 97.426-97.425v-44.528c0-10.401-8.432-18.833-18.833-18.833z" fill="#be694e"/><path d="m246.224 189.909-.253 6.762c-.342 9.303-8.174 16.555-17.477 16.213l-26.259-.996c-5.454-.193-8.575 6.167-5.068 10.343l23.183 27.627c12.691 15.128 10.715 37.658-4.399 50.349l-12.038 10.105c-15.128 12.691-37.672 10.715-50.349-4.413l-40.481-48.224c-2.096-2.511-3.849-5.275-5.216-8.248l-16.971-36.9c-1.367-2.972-3.121-5.736-5.231-8.248l-55.101-65.664c-1.463-1.743-1.236-4.343.508-5.806l39.934-33.505c1.743-1.463 4.342-1.235 5.805.508l49.231 58.666c5.528 6.613 13.613 10.566 22.232 10.878l81.736 3.077c9.318.356 16.57 8.173 16.214 17.476z" fill="#ffcdbe"/><path d="m173.661 296.705-43.08-51.319c-2.23-2.673-4.096-5.614-5.551-8.777l-18.06-39.268c-1.455-3.163-3.321-6.104-5.567-8.778l-56.513-67.346-13.817 11.593c-1.744 1.463-1.971 4.062-.508 5.806l55.101 65.664c2.11 2.512 3.864 5.276 5.231 8.248l16.971 36.9c1.367 2.972 3.121 5.736 5.216 8.248l40.481 48.224c12.677 15.128 35.221 17.105 50.349 4.413l.048-.04c-11.241.338-22.518-4.281-30.301-13.568z" fill="#ebae9d"/><path d="m459.168 424.114h-294.101c-12.831 0-23.232-10.401-23.232-23.232s10.401-23.232 23.232-23.232h294.101c12.831 0 23.232 10.401 23.232 23.232s-10.402 23.232-23.232 23.232z" fill="#f4ddb1"/><path d="m459.168 377.651h-35.797c12.831 0 23.232 10.401 23.232 23.232s-10.401 23.232-23.232 23.232h35.797c12.83 0 23.232-10.401 23.232-23.232s-10.402-23.232-23.232-23.232z" fill="#efcb83"/><path d="m286.004 424.114h52.227v87.886h-52.227z" fill="#f4ddb1"/><path d="m286.004 424.114h52.227v30.345h-52.227z" fill="#efcb83"/></g></svg>
