<svg id="Capa_1" enable-background="new 0 0 512 512" viewBox="0 0 512 512" xmlns="http://www.w3.org/2000/svg"><g><path d="m21.355 19.211h469.29v356.05h-469.29z" fill="#fee2ca"/><path d="m455.638 19.211h35.007v356.05h-35.007z" fill="#fed5b0"/><path d="m503.51 32.933h-495.02c-4.547 0-8.233-3.686-8.233-8.233v-16.467c0-4.547 3.686-8.233 8.233-8.233h495.02c4.547 0 8.233 3.686 8.233 8.233v16.466c0 4.548-3.686 8.234-8.233 8.234z" fill="#0268b4"/><path d="m503.51 391.727h-495.02c-4.547 0-8.233-3.686-8.233-8.233v-16.466c0-4.547 3.686-8.233 8.233-8.233h495.02c4.547 0 8.233 3.686 8.233 8.233v16.466c0 4.547-3.686 8.233-8.233 8.233z" fill="#0268b4"/><g><path d="m105.445 404.839c-21.799 0-39.47 17.672-39.47 39.47v67.691h236.75v-67.69c0-21.799-17.672-39.47-39.47-39.47-1.55-.001-158.997-.001-157.81-.001z" fill="#c4e2ff"/><path d="m147.781 328.828v59.278l36.434 24.29 36.434-24.29v-59.278z" fill="#ffbfb1"/><path d="m272.149 242.681c-.407 0-.811.014-1.215.031-6.959-41.611-43.133-73.325-86.719-73.325-43.587 0-79.76 31.715-86.719 73.325-.403-.016-.807-.031-1.215-.031-16.491 0-29.86 13.368-29.86 29.859s13.369 29.86 29.86 29.86c.407 0 .811-.014 1.215-.031 6.959 41.611 43.133 73.325 86.719 73.325 43.587 0 79.76-31.714 86.719-73.325.404.016.807.031 1.215.031 16.491 0 29.86-13.369 29.86-29.86s-13.369-29.859-29.86-29.859z" fill="#ffcebf"/><g><g><path d="m141.293 294.739c-4.263 0-7.719-3.455-7.719-7.719v-16.193c0-4.263 3.456-7.719 7.719-7.719s7.719 3.455 7.719 7.719v16.193c0 4.263-3.456 7.719-7.719 7.719z" fill="#384949"/></g><g><path d="m227.137 294.739c-4.263 0-7.719-3.455-7.719-7.719v-16.193c0-4.263 3.456-7.719 7.719-7.719s7.719 3.455 7.719 7.719v16.193c-.001 4.263-3.457 7.719-7.719 7.719z" fill="#384949"/></g></g><path d="m184.215 412.396-18.675 19.498 6.769 26.526h23.812l6.769-26.526z" fill="#fd544d"/><path d="m172.309 458.42-10.526 53.58h44.86l-10.525-53.58z" fill="#fd544d"/><path d="m147.78 388.107-30.798 16.732 43.452 32.386 23.781-24.829z" fill="#b3dafe"/><g><path d="m133.269 316.64h-9.66c-3.517 0-6.369-2.851-6.369-6.369s2.851-6.369 6.369-6.369h9.66c3.517 0 6.369 2.851 6.369 6.369s-2.851 6.369-6.369 6.369z" fill="#ffb09e"/></g><path d="m209.481 306.615c0 18.795-11.298 34.032-25.236 34.032-13.937 0-25.236-15.237-25.236-34.032z" fill="#ffb09e"/><path d="m272.149 242.681c-.407 0-.811.014-1.215.031-6.959-41.611-43.133-73.325-86.719-73.325-3.957 0-7.85.269-11.669.775 38.243 5.072 68.723 34.717 75.05 72.55.404-.016.807-.031 1.215-.031 16.491 0 29.86 13.368 29.86 29.859s-13.369 29.86-29.86 29.86c-.407 0-.811-.015-1.215-.031-6.327 37.833-36.808 67.478-75.05 72.55 3.818.506 7.712.775 11.669.775 43.587 0 79.76-31.714 86.719-73.325.403.016.807.031 1.215.031 16.491 0 29.86-13.369 29.86-29.86s-13.369-29.859-29.86-29.859z" fill="#ffbfb1"/><path d="m244.436 140.372c-6.574-10.541-18.267-17.56-31.606-17.56h-71.527c-36.443 0-65.986 29.543-65.986 65.986v53.914h124.899c12.779 0 24.431-4.815 33.252-12.722 6.168 7.749 15.675 12.722 26.349 12.722h33.296v-52.975c0-27.037-21.731-48.986-48.677-49.365z" fill="#c4573a"/><g><path d="m244.436 140.372c-6.574-10.541-18.267-17.56-31.606-17.56h-29.173c13.338 0 25.032 7.019 31.606 17.56 26.946.38 48.676 22.329 48.676 49.365v52.975h29.173v-52.975c.001-27.037-21.73-48.986-48.676-49.365z" fill="#a74b30"/></g><g><path d="m245.09 316.64h-9.66c-3.517 0-6.369-2.851-6.369-6.369s2.851-6.369 6.369-6.369h9.66c3.517 0 6.369 2.851 6.369 6.369s-2.852 6.369-6.369 6.369z" fill="#ffb09e"/></g><path d="m263.254 404.839c-.418 0-12.213 0-29.173 0 21.799 0 39.47 17.671 39.47 39.47v67.691h29.173v-67.69c.001-21.799-17.671-39.471-39.47-39.471z" fill="#b3dafe"/><path d="m220.649 388.107 30.798 16.732-43.451 32.386-23.781-24.829z" fill="#b3dafe"/><path d="m220.649 388.107-11.789 7.859 16.332 8.873-28.132 20.968 10.936 11.418 43.451-32.386z" fill="#8ac9fe"/></g><path d="m382.496 32.933c-49.365 0-89.383 35.678-89.383 79.688 0 25.788 13.744 48.711 35.053 63.276l-9.644 32.504 55.454-16.454c2.805.236 5.646.362 8.52.362 49.365 0 89.383-35.678 89.383-79.689 0-44.01-40.018-79.687-89.383-79.687z" fill="#b3dafe"/><g fill="#015a9a"><circle cx="382.496" cy="114.644" r="11.063"/><circle cx="341.654" cy="114.644" r="11.063"/><circle cx="423.337" cy="114.644" r="11.063"/><path d="m503.51 0h-35.007c4.547 0 8.233 3.686 8.233 8.233v16.466c0 4.547-3.686 8.233-8.233 8.233h35.007c4.547 0 8.233-3.686 8.233-8.233v-16.466c0-4.547-3.686-8.233-8.233-8.233z"/><path d="m503.51 358.794h-35.007c4.547 0 8.233 3.686 8.233 8.233v16.466c0 4.547-3.686 8.233-8.233 8.233h35.007c4.547 0 8.233-3.686 8.233-8.233v-16.466c0-4.547-3.686-8.233-8.233-8.233z"/></g><path d="m382.496 32.933c-2.953 0-5.872.131-8.752.381 45.257 3.921 80.631 37.93 80.631 79.308 0 44.011-40.018 79.688-89.383 79.688-2.874 0-5.715-.126-8.52-.362l-36.261 10.759-1.69 5.695 55.454-16.454c2.805.236 5.646.362 8.52.362 49.365 0 89.383-35.678 89.383-79.688.001-44.012-40.017-79.689-89.382-79.689z" fill="#8ac9fe"/></g></svg>
